<?xml version="1.0" encoding="UTF-8"?>
<svg width="17px" height="15px" viewBox="0 0 17 15" version="1.1" xmlns="http://www.w3.org/2000/svg" xmlns:xlink="http://www.w3.org/1999/xlink">
    <!-- Generator: sketchtool 48 (47235) - http://www.bohemiancoding.com/sketch -->
    <title>B9180F9B-AFF2-4ABB-97CD-2D3559BEDEC8</title>
    <desc>Created with sketchtool.</desc>
    <defs></defs>
    <g id="A4" stroke="none" stroke-width="1" fill="none" fill-rule="evenodd" transform="translate(-49.000000, -538.000000)">
        <g id="Group-10" transform="translate(49.000000, 538.000000)">
            <path d="M0,11.9709687 L0,12.1323306 C0,12.747523 0.465669672,13.2457279 1.04032586,13.2457279 C7.41016178,13.2188141 12.274696,13.2053571 15.6339286,13.2053571 C15.7125902,13.2053571 16.2079639,13.2169467 16.6964286,12.75 C17.0220717,12.4387022 16.9208812,12.2869165 16.3928571,12.2946429 L0.643580471,12.7243272 C0.288189649,12.7243272 0,12.3869799 0,11.9709687 Z" id="Fill-12" fill="#777776"></path>
            <polyline id="Fill-37" fill="#4D4E4C" points="5.88951531 12.8477216 5.79000588 13.3691223 5.54144769 14.6751453 11.0876984 14.6751453 10.7392 12.8477216 5.88951531 12.8477216"></polyline>
            <path d="M16.1196307,9.09559012 L16.1196307,10.4137192 L0.88036933,10.4137192 L0.88036933,0.787881715 L16.1196307,0.787881715 L16.1196307,9.09559012 Z M16.3627559,0 L0.637244079,0 C0.285352268,0 0,0.334025898 0,0.745941244 L0,11.2016009 L17,11.2016009 L17,0.745941244 C17,0.334025898 16.7146477,0 16.3627559,0 Z" id="Fill-40" fill="#343534"></path>
            <path d="M0,12.1052491 C0,12.5212603 0.285352268,12.8586076 0.637244079,12.8586076 L16.3627559,12.8586076 C16.7146477,12.8586076 17,12.5212603 17,12.1052491 L17,11.0942159 L0,11.0942159 L0,12.1052491" id="Fill-42" fill="#9E9F9E"></path>
        </g>
    </g>
</svg>