<?xml version="1.0" encoding="UTF-8"?>
<svg width="14px" height="10px" viewBox="0 0 14 10" version="1.1" xmlns="http://www.w3.org/2000/svg" xmlns:xlink="http://www.w3.org/1999/xlink">
    <!-- Generator: sketchtool 48 (47235) - http://www.bohemiancoding.com/sketch -->
    <title>D42C55E4-53D9-4DA7-8764-065C1F4B2E9A</title>
    <desc>Created with sketchtool.</desc>
    <defs></defs>
    <g id="A4" stroke="none" stroke-width="1" fill="none" fill-rule="evenodd" transform="translate(-50.000000, -618.000000)">
        <g id="Group-14" transform="translate(50.000000, 618.000000)">
            <rect id="Rectangle-3" fill="#F61C0D" x="0" y="0" width="14" height="10" rx="2"></rect>
            <path d="M7.17888544,3.35777088 L8.85527864,6.71055728 C8.90467649,6.80935298 8.86463162,6.92948759 8.76583592,6.97888544 C8.73806483,6.99277098 8.70744222,7 8.6763932,7 L5.3236068,7 C5.21314985,7 5.1236068,6.91045695 5.1236068,6.8 C5.1236068,6.76895098 5.13083582,6.73832837 5.14472136,6.71055728 L6.82111456,3.35777088 C6.87051241,3.25897518 6.99064702,3.21893031 7.08944272,3.26832816 C7.1281482,3.2876809 7.1595327,3.3190654 7.17888544,3.35777088 Z" id="Triangle" fill="#FFFFFF" transform="translate(7.000000, 5.000000) rotate(90.000000) translate(-7.000000, -5.000000) "></path>
        </g>
    </g>
</svg>