<?xml version="1.0" encoding="UTF-8"?>
<svg width="14px" height="14px" viewBox="0 0 14 14" version="1.1" xmlns="http://www.w3.org/2000/svg" xmlns:xlink="http://www.w3.org/1999/xlink">
    <!-- Generator: sketchtool 48 (47235) - http://www.bohemiancoding.com/sketch -->
    <title>D8656A0B-202E-494A-B9E1-CA597B8434F2</title>
    <desc>Created with sketchtool.</desc>
    <defs></defs>
    <g id="A4" stroke="none" stroke-width="1" fill="none" fill-rule="evenodd" transform="translate(-51.000000, -578.000000)">
        <g id="014-snapchat" transform="translate(51.000000, 578.000000)" fill="#050505" fill-rule="nonzero">
            <path d="M6.9839403,0.767880597 C8.86026866,0.768507463 10.4232239,2.33059701 10.4254925,4.21146269 C10.4260299,4.652 10.4396119,5.05767164 10.4644776,5.43137313 C10.4798209,5.6619403 10.6715821,5.83280597 10.8914925,5.83280597 C10.9238806,5.83280597 10.9568657,5.82910448 10.99,5.82134328 L11.577791,5.68355224 C11.602806,5.67767164 11.6279104,5.67486567 11.6527164,5.67486567 C11.802,5.67486567 11.9394627,5.77686567 11.9729851,5.9279403 C12.0203582,6.14143284 11.9007463,6.35713433 11.6938806,6.42967164 L10.8016418,6.78985075 C10.5763881,6.88077612 10.455403,7.1259403 10.5188358,7.36044776 C11.2346567,10.0068358 13.2340299,9.73161194 13.2340299,10.0763881 C13.2340299,10.5093433 11.7270149,10.5704776 11.5908657,10.7066567 C11.4547164,10.8428358 11.5849552,11.5037015 11.2807463,11.6316418 C11.223403,11.6557612 11.1419403,11.6641493 11.0425672,11.6641493 C10.8134328,11.6641493 10.4893731,11.6194328 10.1478209,11.6194328 C9.85155224,11.6194328 9.5421194,11.6530746 9.27008955,11.7787463 C8.54841791,12.1121194 7.85265672,12.734806 6.99014925,12.734806 C6.12764179,12.734806 5.4318806,12.1121194 4.71020896,11.7787463 C4.4381194,11.6530448 4.12877612,11.6194328 3.83247761,11.6194328 C3.49095522,11.6194328 3.16683582,11.6641493 2.93773134,11.6641493 C2.83841791,11.6641493 2.75686567,11.6557313 2.69955224,11.6316418 C2.39534328,11.5037015 2.52558209,10.8428358 2.38943284,10.7066567 C2.25328358,10.5704776 0.746268657,10.5093134 0.746268657,10.0763582 C0.746268657,9.73155224 2.74564179,10.0067761 3.46146269,7.36041791 C3.52489552,7.1259403 3.40391045,6.88077612 3.17862687,6.7898209 L2.28638806,6.42964179 C2.07949254,6.35710448 1.9598806,6.14140299 2.00728358,5.92791045 C2.04080597,5.77680597 2.17826866,5.67480597 2.32755224,5.67483582 C2.35232836,5.67483582 2.37746269,5.67764179 2.40247761,5.68352239 L2.99026866,5.82131343 C3.02340299,5.82907463 3.05638806,5.83277612 3.08877612,5.83277612 C3.30865672,5.83277612 3.50044776,5.6618806 3.51579104,5.43134328 C3.54065672,5.05764179 3.55426866,4.65197015 3.55480597,4.21143284 C3.55707463,2.33059701 5.10758209,0.768537313 6.9839403,0.767880597 Z M6.9841791,0.0216119403 L6.98391045,0.0216119403 L6.98364179,0.0216119403 C6.42358209,0.0217910448 5.878,0.134328358 5.3621194,0.356119403 C4.86692537,0.568985075 4.42125373,0.872507463 4.03749254,1.25826866 C3.65423881,1.64352239 3.35262687,2.09077612 3.14104478,2.58761194 C2.92104478,3.10423881 2.80916418,3.65026866 2.80847761,4.21053731 C2.80814925,4.48561194 2.80244776,4.75256716 2.79146269,5.00820896 L2.57277612,4.95692537 C2.49253731,4.9381194 2.41002985,4.92856716 2.32761194,4.92853731 C2.08961194,4.92850746 1.85483582,5.00895522 1.66653731,5.15504478 C1.47008955,5.30746269 1.33232836,5.52450746 1.27868657,5.76620896 C1.15101493,6.34152239 1.46868657,6.92232836 2.01919403,7.12656716 L2.67402985,7.39089552 C2.24041791,8.7218209 1.44086567,8.97686567 0.902447761,9.14865672 C0.75958209,9.19423881 0.636179104,9.23361194 0.518686567,9.29191045 C0.0505373134,9.52426866 0,9.91791045 0,10.0763582 C0,10.3798507 0.143641791,10.656806 0.404507463,10.8561791 C0.53438806,10.9554627 0.695283582,11.0373731 0.896358209,11.106597 C1.17041791,11.2009552 1.4881194,11.2608358 1.74632836,11.3088358 C1.75880597,11.4045075 1.77710448,11.5072836 1.8079403,11.6108657 C1.93597015,12.0410448 2.20614925,12.2336716 2.41026866,12.3194925 C2.6039403,12.4009552 2.8040597,12.4103582 2.93773134,12.4103582 C3.06847761,12.4103582 3.20668657,12.4001194 3.35301493,12.3892836 C3.51,12.3776418 3.67232836,12.3656418 3.83247761,12.3656418 C4.08065672,12.3656418 4.26540299,12.3952537 4.39725373,12.4561493 C4.57829851,12.539791 4.77029851,12.6525672 4.97358209,12.7719403 C5.53949254,13.1042985 6.18089552,13.4810149 6.99014925,13.4810149 C7.79940299,13.4810149 8.44077612,13.1042985 9.00668657,12.7719403 C9.20997015,12.6525373 9.40197015,12.539791 9.58304478,12.4561493 C9.71489552,12.3952239 9.89964179,12.3656418 10.1478209,12.3656418 C10.3079701,12.3656418 10.4702985,12.3776716 10.6272537,12.3892836 C10.7735821,12.4001194 10.911791,12.4103582 11.0425373,12.4103582 C11.176209,12.4103582 11.3762985,12.4009552 11.57,12.3194925 C11.7741194,12.2336716 12.0442985,12.0410448 12.1723284,11.6108657 C12.2031642,11.5072836 12.2214925,11.4045075 12.2339403,11.3088358 C12.4921493,11.260806 12.8098806,11.2009552 13.0839104,11.106597 C13.2850149,11.0373731 13.4458806,10.9554627 13.5757612,10.8561791 C13.836597,10.656806 13.9802687,10.3798507 13.9802687,10.0763582 C13.9802687,9.91791045 13.9297313,9.52426866 13.4615224,9.2919403 C13.3440299,9.23364179 13.2206269,9.19426866 13.0777612,9.14868657 C12.5393433,8.97692537 11.739791,8.72185075 11.3061791,7.39092537 L11.9609851,7.12659701 C12.5114925,6.92235821 12.829194,6.34152239 12.7015224,5.76620896 C12.6478806,5.52450746 12.5101194,5.30746269 12.3136716,5.15504478 C12.1253731,5.00898507 11.8906567,4.92853731 11.6527164,4.92853731 C11.5702985,4.92853731 11.487791,4.93808955 11.4074925,4.95689552 L11.1887761,5.0081791 C11.177791,4.75256716 11.1720896,4.48561194 11.1717612,4.21050746 C11.1710746,3.64979104 11.0582985,3.10322388 10.8365373,2.58591045 C10.6236716,2.08931343 10.3204179,1.6421791 9.93522388,1.25689552 C9.5500597,0.871641791 9.10313433,0.568447761 8.60692537,0.355761194 C8.0900597,0.134238806 7.54408955,0.0218208955 6.9841791,0.0216119403 Z" id="Shape"></path>
        </g>
    </g>
</svg>