<?xml version="1.0" encoding="UTF-8"?>
<svg width="14px" height="12px" viewBox="0 0 14 12" version="1.1" xmlns="http://www.w3.org/2000/svg" xmlns:xlink="http://www.w3.org/1999/xlink">
    <!-- Generator: sketchtool 48 (47235) - http://www.bohemiancoding.com/sketch -->
    <title>876B9FB6-9758-4698-8593-E76A673B38AA</title>
    <desc>Created with sketchtool.</desc>
    <defs></defs>
    <g id="A4" stroke="none" stroke-width="1" fill="none" fill-rule="evenodd" transform="translate(-130.000000, -578.000000)">
        <g id="008-twitter" transform="translate(130.000000, 578.000000)" fill="#76A9EA" fill-rule="nonzero">
            <path d="M13.7490219,1.3686618 C13.4386034,1.50631144 13.116365,1.61490511 12.7857129,1.69352311 C13.1500535,1.34730414 13.4239903,0.914257908 13.5785353,0.430900243 C13.6226472,0.292909976 13.4727689,0.173586375 13.3481655,0.247469586 C12.8881752,0.520316302 12.392691,0.725002433 11.8754404,0.855907543 C11.8454307,0.86350365 11.8144672,0.867352798 11.7834015,0.867352798 C11.6891825,0.867352798 11.5975864,0.83236983 11.5255426,0.768875912 C10.9752165,0.283849148 10.2674161,0.0167250608 9.53256934,0.0167250608 C9.21458881,0.0167250608 8.89354258,0.0662871046 8.57832117,0.164048662 C7.60165937,0.466973236 6.84807786,1.27260341 6.61164477,2.26656934 C6.52294404,2.63939173 6.49892944,3.01255474 6.54021411,3.3756691 C6.54494891,3.41739659 6.52522628,3.44652068 6.51306569,3.46018005 C6.49170803,3.48412652 6.46142579,3.49785401 6.4299854,3.49785401 C6.42647689,3.49785401 6.42286618,3.4976837 6.41928954,3.49734307 C4.28141119,3.29872019 2.35356691,2.26874939 0.99086618,0.59719708 C0.921377129,0.51193674 0.788121655,0.522394161 0.732734793,0.617396594 C0.465883212,1.07520681 0.324861314,1.59882725 0.324861314,2.13164477 C0.324861314,2.94820925 0.652924574,3.71773236 1.22276886,4.27872019 C0.98313382,4.22190268 0.75119708,4.13241849 0.535746959,4.01275426 C0.431513382,3.95484672 0.303265207,4.02927494 0.301800487,4.14849635 C0.286880779,5.36155718 0.997099757,6.44095377 2.06103163,6.92700243 C2.03960584,6.92751338 2.01818005,6.92775182 1.99672019,6.92775182 C1.82807299,6.92775182 1.65731387,6.91146959 1.48924574,6.87934793 C1.37186375,6.85693431 1.27325061,6.9682871 1.3096983,7.08209246 C1.65503163,8.16022871 2.5833236,8.95492457 3.69419465,9.13535766 C2.77223844,9.75425304 1.69859854,10.0807153 0.581153285,10.0807153 L0.232788321,10.0805109 C0.125454988,10.0805109 0.034676399,10.1504769 0.00732360097,10.254438 C-0.019620438,10.3568321 0.0300097324,10.4648467 0.121537713,10.5180876 C1.38072019,11.2508905 2.81699757,11.6381898 4.27572263,11.6381898 C5.55258394,11.6381898 6.7469781,11.3847932 7.82576156,10.8850852 C8.81472019,10.4269684 9.6886472,9.77210219 10.4232555,8.9386764 C11.1075864,8.16230657 11.6427202,7.26606813 12.0137372,6.27489538 C12.3674161,5.33008273 12.5543552,4.32194647 12.5543552,3.35945499 L12.5543552,3.31360584 C12.5543212,3.15906083 12.624219,3.01364477 12.7461655,2.91465693 C13.2089148,2.53893917 13.6118832,2.0966618 13.9438297,1.60012165 C14.0314745,1.46901217 13.8932457,1.304691 13.7490219,1.3686618 Z" id="Shape"></path>
        </g>
    </g>
</svg>